<svg width="1000" height="988" viewBox="0 0 1000 988" fill="none" xmlns="http://www.w3.org/2000/svg">
<g filter="url(#filter0_d_103_59)">
<rect width="1000" height="980" rx="100" fill="#F7F7F7"/>
</g>
<g filter="url(#filter1_d_103_59)">
<path d="M357.887 435.795V429.205H361.523C362.925 429.205 364.099 428.93 365.046 428.381C366.012 427.831 366.808 427.121 367.433 426.25C368.076 425.379 368.607 424.47 369.023 423.523L369.933 421.364L349.819 376.818H357.433L373.455 412.955L388.114 376.818H395.614L375.501 425.568C374.705 427.386 373.796 429.072 372.773 430.625C371.77 432.178 370.397 433.428 368.654 434.375C366.931 435.322 364.592 435.795 361.637 435.795H357.887ZM400.629 451.364V391.364H407.106V398.295H407.901C408.394 397.538 409.076 396.572 409.947 395.398C410.837 394.205 412.106 393.144 413.754 392.216C415.42 391.269 417.674 390.795 420.515 390.795C424.189 390.795 427.428 391.714 430.231 393.551C433.034 395.388 435.221 397.992 436.793 401.364C438.365 404.735 439.151 408.712 439.151 413.295C439.151 417.917 438.365 421.922 436.793 425.312C435.221 428.684 433.043 431.297 430.259 433.153C427.475 434.991 424.265 435.909 420.629 435.909C417.826 435.909 415.581 435.445 413.896 434.517C412.21 433.57 410.913 432.5 410.004 431.307C409.094 430.095 408.394 429.091 407.901 428.295H407.333V451.364H400.629ZM407.219 413.182C407.219 416.477 407.702 419.384 408.668 421.903C409.634 424.403 411.045 426.364 412.901 427.784C414.757 429.186 417.03 429.886 419.719 429.886C422.522 429.886 424.862 429.148 426.737 427.67C428.63 426.174 430.051 424.167 430.998 421.648C431.964 419.11 432.447 416.288 432.447 413.182C432.447 410.114 431.973 407.348 431.026 404.886C430.098 402.405 428.687 400.445 426.793 399.006C424.918 397.547 422.56 396.818 419.719 396.818C416.992 396.818 414.701 397.509 412.844 398.892C410.988 400.256 409.587 402.169 408.64 404.631C407.693 407.074 407.219 409.924 407.219 413.182ZM467.106 435.909C463.166 435.909 459.71 434.972 456.737 433.097C453.782 431.222 451.471 428.598 449.805 425.227C448.157 421.856 447.333 417.917 447.333 413.409C447.333 408.864 448.157 404.896 449.805 401.506C451.471 398.116 453.782 395.483 456.737 393.608C459.71 391.733 463.166 390.795 467.106 390.795C471.045 390.795 474.492 391.733 477.447 393.608C480.42 395.483 482.731 398.116 484.379 401.506C486.045 404.896 486.879 408.864 486.879 413.409C486.879 417.917 486.045 421.856 484.379 425.227C482.731 428.598 480.42 431.222 477.447 433.097C474.492 434.972 471.045 435.909 467.106 435.909ZM467.106 429.886C470.098 429.886 472.56 429.119 474.492 427.585C476.424 426.051 477.854 424.034 478.782 421.534C479.71 419.034 480.174 416.326 480.174 413.409C480.174 410.492 479.71 407.775 478.782 405.256C477.854 402.737 476.424 400.701 474.492 399.148C472.56 397.595 470.098 396.818 467.106 396.818C464.113 396.818 461.651 397.595 459.719 399.148C457.788 400.701 456.358 402.737 455.43 405.256C454.502 407.775 454.038 410.492 454.038 413.409C454.038 416.326 454.502 419.034 455.43 421.534C456.358 424.034 457.788 426.051 459.719 427.585C461.651 429.119 464.113 429.886 467.106 429.886ZM497.113 435V391.364H514.954C519.651 391.364 523.382 392.424 526.147 394.545C528.912 396.667 530.295 399.47 530.295 402.955C530.295 405.606 529.509 407.661 527.937 409.119C526.365 410.559 524.348 411.534 521.886 412.045C523.496 412.273 525.058 412.841 526.573 413.75C528.107 414.659 529.376 415.909 530.38 417.5C531.384 419.072 531.886 421.004 531.886 423.295C531.886 425.53 531.317 427.528 530.181 429.29C529.045 431.051 527.416 432.443 525.295 433.466C523.174 434.489 520.636 435 517.681 435H497.113ZM503.477 428.864H517.681C519.992 428.864 521.8 428.314 523.107 427.216C524.414 426.117 525.067 424.621 525.067 422.727C525.067 420.473 524.414 418.703 523.107 417.415C521.8 416.108 519.992 415.455 517.681 415.455H503.477V428.864ZM503.477 409.659H514.954C516.753 409.659 518.297 409.413 519.585 408.92C520.872 408.409 521.857 407.689 522.539 406.761C523.24 405.814 523.59 404.697 523.59 403.409C523.59 401.572 522.823 400.133 521.289 399.091C519.755 398.03 517.643 397.5 514.954 397.5H503.477V409.659ZM571.239 410.114V416.364H547.148V410.114H571.239ZM548.739 391.364V435H542.035V391.364H548.739ZM576.353 391.364V435H569.648V391.364H576.353ZM595.302 425.114L616.325 391.364H624.052V435H617.347V401.25L596.438 435H588.597V391.364H595.302V425.114ZM641.218 435.455C639.817 435.455 638.614 434.953 637.61 433.949C636.606 432.945 636.104 431.742 636.104 430.341C636.104 428.939 636.606 427.737 637.61 426.733C638.614 425.729 639.817 425.227 641.218 425.227C642.62 425.227 643.822 425.729 644.826 426.733C645.83 427.737 646.332 428.939 646.332 430.341C646.332 431.269 646.095 432.121 645.621 432.898C645.167 433.674 644.551 434.299 643.775 434.773C643.017 435.227 642.165 435.455 641.218 435.455ZM641.218 403.068C639.817 403.068 638.614 402.566 637.61 401.562C636.606 400.559 636.104 399.356 636.104 397.955C636.104 396.553 636.606 395.35 637.61 394.347C638.614 393.343 639.817 392.841 641.218 392.841C642.62 392.841 643.822 393.343 644.826 394.347C645.83 395.35 646.332 396.553 646.332 397.955C646.332 398.883 646.095 399.735 645.621 400.511C645.167 401.288 644.551 401.913 643.775 402.386C643.017 402.841 642.165 403.068 641.218 403.068Z" fill="#D96666"/>
</g>
<g filter="url(#filter2_d_103_59)">
<path d="M295.194 114V55.8182H302.239V81.7273H333.262V55.8182H340.308V114H333.262V87.9773H302.239V114H295.194ZM366.344 115.023C363.579 115.023 361.07 114.502 358.816 113.46C356.562 112.4 354.772 110.875 353.447 108.886C352.121 106.879 351.458 104.455 351.458 101.614C351.458 99.1136 351.951 97.0871 352.935 95.5341C353.92 93.9621 355.237 92.7311 356.884 91.8409C358.532 90.9508 360.35 90.2879 362.339 89.8523C364.346 89.3977 366.363 89.0379 368.39 88.7727C371.041 88.4318 373.191 88.1761 374.839 88.0057C376.505 87.8163 377.718 87.5038 378.475 87.0682C379.252 86.6326 379.64 85.875 379.64 84.7955V84.5682C379.64 81.7652 378.873 79.5871 377.339 78.0341C375.824 76.4811 373.522 75.7045 370.435 75.7045C367.235 75.7045 364.725 76.4053 362.907 77.8068C361.089 79.2083 359.81 80.7045 359.072 82.2955L352.708 80.0227C353.844 77.3712 355.36 75.3068 357.254 73.8295C359.166 72.3333 361.25 71.2917 363.504 70.7045C365.776 70.0985 368.011 69.7955 370.208 69.7955C371.61 69.7955 373.219 69.9659 375.038 70.3068C376.875 70.6288 378.646 71.3011 380.35 72.3239C382.074 73.3466 383.504 74.8902 384.64 76.9545C385.776 79.0189 386.344 81.7841 386.344 85.25V114H379.64V108.091H379.299C378.844 109.038 378.087 110.051 377.026 111.131C375.966 112.21 374.555 113.129 372.793 113.886C371.032 114.644 368.882 115.023 366.344 115.023ZM367.367 109C370.019 109 372.254 108.479 374.072 107.438C375.909 106.396 377.291 105.051 378.219 103.403C379.166 101.756 379.64 100.023 379.64 98.2045V92.0682C379.356 92.4091 378.731 92.7216 377.765 93.0057C376.818 93.2708 375.719 93.5076 374.469 93.7159C373.238 93.9053 372.036 94.0758 370.862 94.2273C369.706 94.3598 368.769 94.4735 368.049 94.5682C366.307 94.7955 364.678 95.1648 363.163 95.6761C361.666 96.1686 360.454 96.9167 359.526 97.9205C358.617 98.9053 358.163 100.25 358.163 101.955C358.163 104.284 359.024 106.045 360.748 107.239C362.49 108.413 364.697 109 367.367 109ZM416.309 114.909C412.218 114.909 408.695 113.943 405.741 112.011C402.786 110.08 400.513 107.419 398.923 104.028C397.332 100.638 396.536 96.7652 396.536 92.4091C396.536 87.9773 397.351 84.0663 398.979 80.6761C400.627 77.267 402.919 74.6061 405.854 72.6932C408.809 70.7614 412.256 69.7955 416.195 69.7955C419.263 69.7955 422.029 70.3636 424.491 71.5C426.953 72.6364 428.97 74.2273 430.542 76.2727C432.114 78.3182 433.089 80.7045 433.468 83.4318H426.763C426.252 81.4432 425.116 79.6818 423.354 78.1477C421.612 76.5947 419.263 75.8182 416.309 75.8182C413.695 75.8182 411.404 76.5 409.434 77.8636C407.483 79.2083 405.959 81.1117 404.86 83.5739C403.781 86.017 403.241 88.8864 403.241 92.1818C403.241 95.553 403.771 98.4886 404.832 100.989C405.911 103.489 407.426 105.43 409.377 106.812C411.347 108.195 413.657 108.886 416.309 108.886C418.051 108.886 419.633 108.583 421.053 107.977C422.474 107.371 423.676 106.5 424.661 105.364C425.646 104.227 426.347 102.864 426.763 101.273H433.468C433.089 103.848 432.152 106.169 430.656 108.233C429.178 110.278 427.218 111.907 424.775 113.119C422.351 114.312 419.529 114.909 416.309 114.909ZM439.832 76.6136V70.3636H475.286V76.6136H460.968V114H454.263V76.6136H439.832ZM485.066 130.364V70.3636H491.543V77.2955H492.339C492.831 76.5379 493.513 75.572 494.384 74.3977C495.274 73.2045 496.543 72.1439 498.191 71.2159C499.858 70.2689 502.112 69.7955 504.952 69.7955C508.627 69.7955 511.865 70.714 514.668 72.5511C517.471 74.3883 519.659 76.9924 521.231 80.3636C522.803 83.7348 523.589 87.7121 523.589 92.2955C523.589 96.9167 522.803 100.922 521.231 104.312C519.659 107.684 517.481 110.297 514.697 112.153C511.913 113.991 508.702 114.909 505.066 114.909C502.263 114.909 500.019 114.445 498.333 113.517C496.647 112.57 495.35 111.5 494.441 110.307C493.532 109.095 492.831 108.091 492.339 107.295H491.771V130.364H485.066ZM491.657 92.1818C491.657 95.4773 492.14 98.3845 493.106 100.903C494.072 103.403 495.483 105.364 497.339 106.784C499.195 108.186 501.468 108.886 504.157 108.886C506.96 108.886 509.299 108.148 511.174 106.67C513.068 105.174 514.488 103.167 515.435 100.648C516.401 98.1098 516.884 95.2879 516.884 92.1818C516.884 89.1136 516.411 86.3485 515.464 83.8864C514.536 81.4053 513.125 79.4451 511.231 78.0057C509.356 76.5473 506.998 75.8182 504.157 75.8182C501.43 75.8182 499.138 76.5095 497.282 77.892C495.426 79.2557 494.024 81.1686 493.077 83.6307C492.13 86.0739 491.657 88.9242 491.657 92.1818ZM551.543 114.909C547.604 114.909 544.147 113.972 541.174 112.097C538.219 110.222 535.909 107.598 534.242 104.227C532.594 100.856 531.771 96.9167 531.771 92.4091C531.771 87.8636 532.594 83.8958 534.242 80.5057C535.909 77.1155 538.219 74.483 541.174 72.608C544.147 70.733 547.604 69.7955 551.543 69.7955C555.483 69.7955 558.93 70.733 561.884 72.608C564.858 74.483 567.168 77.1155 568.816 80.5057C570.483 83.8958 571.316 87.8636 571.316 92.4091C571.316 96.9167 570.483 100.856 568.816 104.227C567.168 107.598 564.858 110.222 561.884 112.097C558.93 113.972 555.483 114.909 551.543 114.909ZM551.543 108.886C554.536 108.886 556.998 108.119 558.93 106.585C560.862 105.051 562.291 103.034 563.219 100.534C564.147 98.0341 564.612 95.3258 564.612 92.4091C564.612 89.4924 564.147 86.7746 563.219 84.2557C562.291 81.7367 560.862 79.7008 558.93 78.1477C556.998 76.5947 554.536 75.8182 551.543 75.8182C548.551 75.8182 546.089 76.5947 544.157 78.1477C542.225 79.7008 540.795 81.7367 539.867 84.2557C538.939 86.7746 538.475 89.4924 538.475 92.4091C538.475 95.3258 538.939 98.0341 539.867 100.534C540.795 103.034 542.225 105.051 544.157 106.585C546.089 108.119 548.551 108.886 551.543 108.886ZM588.255 104.114L609.278 70.3636H617.005V114H610.3V80.25L589.391 114H581.55V70.3636H588.255V104.114ZM604.846 55.8182H611.096C611.096 58.8864 610.035 61.3958 607.914 63.3466C605.793 65.2973 602.914 66.2727 599.278 66.2727C595.698 66.2727 592.848 65.2973 590.727 63.3466C588.624 61.3958 587.573 58.8864 587.573 55.8182H593.823C593.823 57.2955 594.23 58.5928 595.045 59.7102C595.878 60.8276 597.289 61.3864 599.278 61.3864C601.266 61.3864 602.687 60.8276 603.539 59.7102C604.41 58.5928 604.846 57.2955 604.846 55.8182ZM629.285 114V70.3636H635.989V89.3409H640.421L656.103 70.3636H664.739L647.126 91.3864L664.967 114H656.33L642.012 95.5909H635.989V114H629.285ZM678.958 104.114L699.981 70.3636H707.708V114H701.004V80.25L680.094 114H672.254V70.3636H678.958V104.114Z" fill="#D96666"/>
</g>
<defs>
<filter id="filter0_d_103_59" x="0" y="0" width="1000" height="988" filterUnits="userSpaceOnUse" color-interpolation-filters="sRGB">
<feFlood flood-opacity="0" result="BackgroundImageFix"/>
<feColorMatrix in="SourceAlpha" type="matrix" values="0 0 0 0 0 0 0 0 0 0 0 0 0 0 0 0 0 0 127 0" result="hardAlpha"/>
<feOffset dy="8"/>
<feComposite in2="hardAlpha" operator="out"/>
<feColorMatrix type="matrix" values="0 0 0 0 0.85098 0 0 0 0 0.4 0 0 0 0 0.4 0 0 0 1 0"/>
<feBlend mode="normal" in2="BackgroundImageFix" result="effect1_dropShadow_103_59"/>
<feBlend mode="normal" in="SourceGraphic" in2="effect1_dropShadow_103_59" result="shape"/>
</filter>
<filter id="filter1_d_103_59" x="334.819" y="361.818" width="336.513" height="114.545" filterUnits="userSpaceOnUse" color-interpolation-filters="sRGB">
<feFlood flood-opacity="0" result="BackgroundImageFix"/>
<feColorMatrix in="SourceAlpha" type="matrix" values="0 0 0 0 0 0 0 0 0 0 0 0 0 0 0 0 0 0 127 0" result="hardAlpha"/>
<feOffset dx="5" dy="5"/>
<feGaussianBlur stdDeviation="10"/>
<feComposite in2="hardAlpha" operator="out"/>
<feColorMatrix type="matrix" values="0 0 0 0 0.451396 0 0 0 0 0.0367188 0 0 0 0 0.979167 0 0 0 0.25 0"/>
<feBlend mode="normal" in2="BackgroundImageFix" result="effect1_dropShadow_103_59"/>
<feBlend mode="normal" in="SourceGraphic" in2="effect1_dropShadow_103_59" result="shape"/>
</filter>
<filter id="filter2_d_103_59" x="280.194" y="40.8181" width="452.514" height="114.545" filterUnits="userSpaceOnUse" color-interpolation-filters="sRGB">
<feFlood flood-opacity="0" result="BackgroundImageFix"/>
<feColorMatrix in="SourceAlpha" type="matrix" values="0 0 0 0 0 0 0 0 0 0 0 0 0 0 0 0 0 0 127 0" result="hardAlpha"/>
<feOffset dx="5" dy="5"/>
<feGaussianBlur stdDeviation="10"/>
<feComposite in2="hardAlpha" operator="out"/>
<feColorMatrix type="matrix" values="0 0 0 0 0.451396 0 0 0 0 0.0367188 0 0 0 0 0.979167 0 0 0 0.25 0"/>
<feBlend mode="normal" in2="BackgroundImageFix" result="effect1_dropShadow_103_59"/>
<feBlend mode="normal" in="SourceGraphic" in2="effect1_dropShadow_103_59" result="shape"/>
</filter>
</defs>
</svg>
