<svg width="85" height="85" viewBox="0 0 85 85" fill="none" xmlns="http://www.w3.org/2000/svg">
<g filter="url(#filter0_d_141_30)">
<circle cx="42.5" cy="37.5" r="37.5" fill="white"/>
</g>
<path d="M20.6252 23.4375C20.6252 22.1943 21.119 21.002 21.9981 20.1229C22.8772 19.2439 24.0695 18.75 25.3127 18.75H33.9502C36.9439 18.75 39.4502 20.5 41.172 22.45C42.4533 23.9 44.0002 25 45.6252 25H59.6877C60.9309 25 62.1232 25.4939 63.0022 26.3729C63.8813 27.252 64.3752 28.4443 64.3752 29.6875V31.6875C66.1564 32.5156 67.3127 34.425 67.0502 36.5187L65.0502 52.5312C64.8139 54.422 63.8948 56.1612 62.4657 57.4216C61.0367 58.6821 59.1963 59.3767 57.2908 59.375H27.7064C25.802 59.3752 23.9631 58.6798 22.5354 57.4196C21.1077 56.1593 20.1894 54.4209 19.9533 52.5312L17.9533 36.5187C17.8301 35.5343 18.0224 34.5362 18.5025 33.668C18.9826 32.7999 19.7259 32.1064 20.6252 31.6875V23.4375ZM23.7502 31.25H61.2502V29.6875C61.2502 29.2731 61.0855 28.8757 60.7925 28.5826C60.4995 28.2896 60.1021 28.125 59.6877 28.125H45.6252C42.6127 28.125 40.2814 26.1594 38.8314 24.5187C37.4189 22.9187 35.6877 21.875 33.9502 21.875H25.3127C24.8983 21.875 24.5008 22.0396 24.2078 22.3326C23.9148 22.6257 23.7502 23.0231 23.7502 23.4375V31.25ZM22.6033 34.375C22.3818 34.3751 22.1628 34.4222 21.9609 34.5134C21.759 34.6045 21.5788 34.7375 21.4322 34.9036C21.2857 35.0697 21.1761 35.265 21.1107 35.4767C21.0454 35.6883 21.0258 35.9114 21.0533 36.1312L23.0533 52.1437C23.195 53.2778 23.7461 54.321 24.603 55.0772C25.4599 55.8334 26.5636 56.2504 27.7064 56.25H57.2939C58.4368 56.2504 59.5404 55.8334 60.3973 55.0772C61.2542 54.321 61.8053 53.2778 61.947 52.1437L63.947 36.1312C63.9745 35.9114 63.9549 35.6883 63.8896 35.4767C63.8243 35.265 63.7147 35.0697 63.5681 34.9036C63.4215 34.7375 63.2413 34.6045 63.0394 34.5134C62.8375 34.4222 62.6185 34.3751 62.397 34.375H22.6033Z" fill="black"/>
<defs>
<filter id="filter0_d_141_30" x="0" y="0" width="85" height="85" filterUnits="userSpaceOnUse" color-interpolation-filters="sRGB">
<feFlood flood-opacity="0" result="BackgroundImageFix"/>
<feColorMatrix in="SourceAlpha" type="matrix" values="0 0 0 0 0 0 0 0 0 0 0 0 0 0 0 0 0 0 127 0" result="hardAlpha"/>
<feOffset dy="5"/>
<feGaussianBlur stdDeviation="2.5"/>
<feComposite in2="hardAlpha" operator="out"/>
<feColorMatrix type="matrix" values="0 0 0 0 0 0 0 0 0 0 0 0 0 0 0 0 0 0 0.2 0"/>
<feBlend mode="normal" in2="BackgroundImageFix" result="effect1_dropShadow_141_30"/>
<feBlend mode="normal" in="SourceGraphic" in2="effect1_dropShadow_141_30" result="shape"/>
</filter>
</defs>
</svg>
