<svg width="460" height="83" viewBox="0 0 460 83" fill="none" xmlns="http://www.w3.org/2000/svg">
<g filter="url(#filter0_d_130_25)">
<rect width="300" height="70" rx="35" transform="matrix(1 0 0 -1 80 70)" fill="#F7F7F7"/>
</g>
<g filter="url(#filter1_d_130_25)">
<path d="M130.122 36.1818C130.122 39.0966 129.596 41.6155 128.543 43.7386C127.49 45.8617 126.047 47.4991 124.211 48.6506C122.376 49.8021 120.28 50.3778 117.923 50.3778C115.566 50.3778 113.47 49.8021 111.635 48.6506C109.799 47.4991 108.355 45.8617 107.303 43.7386C106.25 41.6155 105.724 39.0966 105.724 36.1818C105.724 33.267 106.25 30.7481 107.303 28.625C108.355 26.5019 109.799 24.8646 111.635 23.7131C113.47 22.5616 115.566 21.9858 117.923 21.9858C120.28 21.9858 122.376 22.5616 124.211 23.7131C126.047 24.8646 127.49 26.5019 128.543 28.625C129.596 30.7481 130.122 33.267 130.122 36.1818ZM126.883 36.1818C126.883 33.7888 126.483 31.7692 125.682 30.1229C124.891 28.4766 123.815 27.2306 122.457 26.3849C121.108 25.5393 119.596 25.1165 117.923 25.1165C116.25 25.1165 114.734 25.5393 113.375 26.3849C112.026 27.2306 110.951 28.4766 110.15 30.1229C109.359 31.7692 108.963 33.7888 108.963 36.1818C108.963 38.5748 109.359 40.5945 110.15 42.2408C110.951 43.8871 112.026 45.1331 113.375 45.9787C114.734 46.8243 116.25 47.2472 117.923 47.2472C119.596 47.2472 121.108 46.8243 122.457 45.9787C123.815 45.1331 124.891 43.8871 125.682 42.2408C126.483 40.5945 126.883 38.5748 126.883 36.1818ZM146.005 57.7727L146.005 29.2727L149.081 29.2727L149.081 32.5653L149.459 32.5653C149.693 32.2055 150.017 31.7467 150.431 31.1889C150.854 30.6222 151.456 30.1184 152.239 29.6776C153.031 29.2278 154.101 29.0028 155.451 29.0028C157.196 29.0028 158.734 29.4392 160.066 30.3118C161.397 31.1844 162.436 32.4214 163.183 34.0227C163.93 35.6241 164.303 37.5133 164.303 39.6903C164.303 41.8854 163.93 43.7881 163.183 45.3984C162.436 46.9998 161.402 48.2412 160.079 49.1229C158.757 49.9955 157.232 50.4318 155.505 50.4318C154.173 50.4318 153.107 50.2114 152.306 49.7706C151.506 49.3208 150.89 48.8125 150.458 48.2457C150.026 47.67 149.693 47.1932 149.459 46.8153L149.189 46.8153L149.189 57.7727L146.005 57.7727ZM149.135 39.6364C149.135 41.2017 149.365 42.5826 149.824 43.7791C150.282 44.9666 150.953 45.8977 151.834 46.5724C152.716 47.2382 153.795 47.571 155.073 47.571C156.404 47.571 157.515 47.2202 158.406 46.5185C159.306 45.8078 159.98 44.8542 160.43 43.6577C160.889 42.4522 161.118 41.1117 161.118 39.6364C161.118 38.179 160.893 36.8655 160.444 35.696C160.003 34.5175 159.333 33.5864 158.433 32.9027C157.542 32.21 156.422 31.8636 155.073 31.8636C153.777 31.8636 152.689 32.192 151.807 32.8487C150.926 33.4965 150.26 34.4051 149.81 35.5746C149.36 36.7351 149.135 38.089 149.135 39.6364ZM175.26 50.4858C173.947 50.4858 172.755 50.2384 171.684 49.7436C170.614 49.2398 169.764 48.5156 169.134 47.571C168.504 46.6174 168.189 45.4659 168.189 44.1165C168.189 42.929 168.423 41.9664 168.891 41.2287C169.359 40.482 169.984 39.8973 170.767 39.4744C171.549 39.0516 172.413 38.7367 173.358 38.5298C174.311 38.3139 175.269 38.143 176.232 38.0171C177.491 37.8551 178.512 37.7337 179.295 37.6527C180.087 37.5627 180.663 37.4143 181.022 37.2074C181.391 37.0005 181.576 36.6406 181.576 36.1278L181.576 36.0199C181.576 34.6885 181.211 33.6539 180.483 32.9162C179.763 32.1785 178.67 31.8097 177.203 31.8097C175.683 31.8097 174.491 32.1425 173.627 32.8082C172.764 33.474 172.157 34.1847 171.806 34.9403L168.783 33.8608C169.323 32.6013 170.042 31.6207 170.942 30.919C171.851 30.2083 172.84 29.7135 173.911 29.4347C174.99 29.1468 176.052 29.0028 177.096 29.0028C177.761 29.0028 178.526 29.0838 179.39 29.2457C180.262 29.3987 181.103 29.718 181.913 30.2038C182.732 30.6896 183.411 31.4228 183.951 32.4034C184.49 33.384 184.76 34.6975 184.76 36.3438L184.76 50L181.576 50L181.576 47.1932L181.414 47.1932C181.198 47.643 180.838 48.1243 180.334 48.6371C179.83 49.1499 179.16 49.5862 178.324 49.946C177.487 50.3059 176.466 50.4858 175.26 50.4858ZM175.746 47.625C177.006 47.625 178.067 47.3776 178.931 46.8828C179.803 46.388 180.46 45.7493 180.901 44.9666C181.351 44.184 181.576 43.3608 181.576 42.4972L181.576 39.5824C181.441 39.7443 181.144 39.8928 180.685 40.0277C180.235 40.1537 179.713 40.2661 179.12 40.3651C178.535 40.455 177.964 40.536 177.406 40.608C176.857 40.6709 176.412 40.7249 176.07 40.7699C175.242 40.8778 174.469 41.0533 173.749 41.2962C173.038 41.5301 172.462 41.8854 172.022 42.3622C171.59 42.83 171.374 43.4688 171.374 44.2784C171.374 45.385 171.783 46.2216 172.602 46.7884C173.43 47.3461 174.478 47.625 175.746 47.625ZM189.278 44.7102L192.678 44.7102C192.75 45.6458 193.173 46.3565 193.947 46.8423C194.729 47.3281 195.746 47.571 196.996 47.571C198.274 47.571 199.367 47.3101 200.275 46.7884C201.184 46.2576 201.638 45.4029 201.638 44.2244C201.638 43.5317 201.467 42.929 201.126 42.4162C200.784 41.8944 200.302 41.4896 199.682 41.2017C199.061 40.9138 198.328 40.7699 197.482 40.7699L193.92 40.7699L193.92 37.9091L197.482 37.9091C198.751 37.9091 199.686 37.6212 200.289 37.0455C200.901 36.4697 201.206 35.75 201.206 34.8864C201.206 33.9598 200.878 33.2176 200.221 32.6598C199.565 32.093 198.634 31.8097 197.428 31.8097C196.214 31.8097 195.202 32.0841 194.392 32.6328C193.582 33.1726 193.155 33.8698 193.11 34.7244L189.763 34.7244C189.799 33.6089 190.141 32.6238 190.789 31.7692C191.437 30.9055 192.318 30.2308 193.434 29.745C194.549 29.2502 195.827 29.0029 197.266 29.0029C198.724 29.0029 199.988 29.2592 201.058 29.772C202.138 30.2758 202.97 30.964 203.555 31.8367C204.148 32.7003 204.445 33.6809 204.445 34.7784C204.445 35.9479 204.117 36.8925 203.46 37.6122C202.803 38.3319 201.98 38.8447 200.991 39.1506L200.991 39.3665C201.773 39.4205 202.452 39.6724 203.028 40.1222C203.613 40.563 204.067 41.1432 204.391 41.8629C204.715 42.5736 204.877 43.3608 204.877 44.2244C204.877 45.4839 204.54 46.5814 203.865 47.5171C203.19 48.4437 202.264 49.1634 201.085 49.6761C199.907 50.1799 198.562 50.4318 197.05 50.4318C195.584 50.4318 194.27 50.1934 193.11 49.7166C191.949 49.2308 191.027 48.5606 190.344 47.706C189.669 46.8423 189.314 45.8438 189.278 44.7102ZM209.35 57.7727L209.35 29.2727L212.427 29.2727L212.427 32.5654L212.805 32.5654C213.039 32.2055 213.363 31.7467 213.776 31.1889C214.199 30.6222 214.802 30.1184 215.585 29.6776C216.376 29.2278 217.447 29.0029 218.796 29.0029C220.542 29.0029 222.08 29.4392 223.411 30.3118C224.743 31.1844 225.782 32.4214 226.529 34.0227C227.275 35.6241 227.649 37.5133 227.649 39.6904C227.649 41.8854 227.275 43.7881 226.529 45.3984C225.782 46.9998 224.747 48.2413 223.425 49.1229C222.102 49.9955 220.578 50.4318 218.85 50.4318C217.519 50.4318 216.453 50.2114 215.652 49.7706C214.852 49.3208 214.235 48.8125 213.803 48.2457C213.372 47.67 213.039 47.1932 212.805 46.8154L212.535 46.8154L212.535 57.7727L209.35 57.7727ZM212.481 39.6364C212.481 41.2017 212.71 42.5826 213.169 43.7791C213.628 44.9666 214.298 45.8977 215.18 46.5725C216.061 47.2382 217.141 47.571 218.418 47.571C219.75 47.571 220.861 47.2202 221.752 46.5185C222.651 45.8078 223.326 44.8542 223.776 43.6577C224.235 42.4522 224.464 41.1118 224.464 39.6364C224.464 38.179 224.239 36.8655 223.789 35.696C223.348 34.5175 222.678 33.5864 221.779 32.9027C220.888 32.21 219.768 31.8636 218.418 31.8636C217.123 31.8636 216.035 32.192 215.153 32.8487C214.271 33.4965 213.606 34.4051 213.156 35.5746C212.706 36.7351 212.481 38.089 212.481 39.6364ZM238.606 50.4858C237.293 50.4858 236.101 50.2384 235.03 49.7436C233.959 49.2398 233.109 48.5156 232.48 47.571C231.85 46.6174 231.535 45.4659 231.535 44.1165C231.535 42.929 231.769 41.9664 232.237 41.2287C232.704 40.482 233.33 39.8973 234.112 39.4744C234.895 39.0516 235.759 38.7368 236.703 38.5298C237.657 38.3139 238.615 38.143 239.578 38.0171C240.837 37.8551 241.858 37.7337 242.641 37.6527C243.432 37.5627 244.008 37.4143 244.368 37.2074C244.737 37.0005 244.921 36.6406 244.921 36.1279L244.921 36.0199C244.921 34.6885 244.557 33.6539 243.828 32.9162C243.109 32.1785 242.016 31.8097 240.549 31.8097C239.029 31.8097 237.837 32.1425 236.973 32.8083C236.11 33.474 235.502 34.1847 235.151 34.9404L232.129 33.8608C232.668 32.6013 233.388 31.6208 234.288 30.919C235.196 30.2083 236.186 29.7136 237.257 29.4347C238.336 29.1468 239.398 29.0029 240.441 29.0029C241.107 29.0029 241.872 29.0838 242.735 29.2458C243.608 29.3987 244.449 29.7181 245.259 30.2038C246.077 30.6896 246.757 31.4228 247.296 32.4034C247.836 33.384 248.106 34.6975 248.106 36.3438L248.106 50L244.921 50L244.921 47.1932L244.759 47.1932C244.543 47.643 244.184 48.1243 243.68 48.6371C243.176 49.1499 242.506 49.5862 241.669 49.946C240.833 50.3059 239.811 50.4858 238.606 50.4858ZM239.092 47.625C240.351 47.625 241.413 47.3776 242.276 46.8828C243.149 46.388 243.806 45.7493 244.247 44.9666C244.696 44.184 244.921 43.3608 244.921 42.4972L244.921 39.5824C244.786 39.7443 244.49 39.8928 244.031 40.0277C243.581 40.1537 243.059 40.2661 242.465 40.3651C241.881 40.455 241.309 40.536 240.752 40.608C240.203 40.6709 239.758 40.7249 239.416 40.7699C238.588 40.8779 237.814 41.0533 237.095 41.2962C236.384 41.5301 235.808 41.8854 235.367 42.3622C234.936 42.83 234.72 43.4688 234.72 44.2784C234.72 45.385 235.129 46.2216 235.948 46.7884C236.775 47.3461 237.823 47.625 239.092 47.625ZM269.302 21.5L270.922 23.4432C270.292 24.0549 269.563 24.4823 268.735 24.7252C267.908 24.9681 266.972 25.1165 265.929 25.1705C264.885 25.2244 263.725 25.2784 262.447 25.3324C261.008 25.3864 259.816 25.7372 258.871 26.385C257.926 27.0327 257.198 27.9683 256.685 29.1918C256.172 30.4153 255.844 31.9176 255.7 33.6989L255.97 33.6989C256.672 32.4034 257.643 31.4498 258.885 30.8381C260.126 30.2263 261.458 29.9205 262.879 29.9205C264.498 29.9205 265.956 30.2983 267.251 31.054C268.547 31.8097 269.572 32.9297 270.328 34.4141C271.083 35.8985 271.461 37.7292 271.461 39.9063C271.461 42.0744 271.074 43.9456 270.301 45.5199C269.536 47.0942 268.461 48.3087 267.076 49.1634C265.699 50.009 264.084 50.4318 262.231 50.4318C260.378 50.4318 258.754 49.9955 257.36 49.1229C255.965 48.2413 254.881 46.9368 254.108 45.2095C253.334 43.4733 252.947 41.3277 252.947 38.7727L252.947 36.5597C252.947 31.9446 253.73 28.4451 255.295 26.0611C256.869 23.6771 259.235 22.4446 262.393 22.3637C263.509 22.3277 264.503 22.3187 265.375 22.3367C266.248 22.3547 267.008 22.3142 267.656 22.2152C268.304 22.1163 268.852 21.8779 269.302 21.5ZM262.231 47.571C263.482 47.571 264.557 47.2562 265.456 46.6264C266.365 45.9967 267.062 45.1106 267.548 43.9681C268.034 42.8165 268.277 41.4626 268.277 39.9063C268.277 38.3949 268.029 37.1084 267.534 36.0469C267.049 34.9853 266.351 34.1757 265.443 33.6179C264.534 33.0601 263.446 32.7813 262.177 32.7813C261.251 32.7813 260.418 32.9387 259.681 33.2536C258.943 33.5684 258.313 34.0317 257.792 34.6435C257.27 35.2552 256.865 36.0019 256.577 36.8835C256.298 37.7652 256.15 38.7727 256.132 39.9063C256.132 42.2273 256.676 44.085 257.765 45.4794C258.853 46.8738 260.342 47.571 262.231 47.571ZM284.753 50.4318C282.882 50.4318 281.24 49.9865 279.828 49.0959C278.424 48.2053 277.327 46.9593 276.535 45.358C275.752 43.7566 275.361 41.8854 275.361 39.7443C275.361 37.5852 275.752 35.7005 276.535 34.0902C277.327 32.4799 278.424 31.2294 279.828 30.3388C281.24 29.4482 282.882 29.0029 284.753 29.0029C286.624 29.0029 288.262 29.4482 289.665 30.3388C291.078 31.2294 292.175 32.4799 292.958 34.0902C293.749 35.7005 294.145 37.5852 294.145 39.7443C294.145 41.8854 293.749 43.7566 292.958 45.358C292.175 46.9593 291.078 48.2053 289.665 49.0959C288.262 49.9865 286.624 50.4318 284.753 50.4318ZM284.753 47.571C286.175 47.571 287.344 47.2067 288.262 46.478C289.179 45.7493 289.859 44.7912 290.299 43.6037C290.74 42.4162 290.961 41.1298 290.961 39.7443C290.961 38.3589 290.74 37.068 290.299 35.8715C289.859 34.675 289.179 33.7079 288.262 32.9702C287.344 32.2325 286.175 31.8637 284.753 31.8637C283.332 31.8637 282.162 32.2325 281.245 32.9702C280.327 33.7079 279.648 34.675 279.207 35.8715C278.766 37.068 278.546 38.3589 278.546 39.7443C278.546 41.1298 278.766 42.4162 279.207 43.6037C279.648 44.7912 280.327 45.7493 281.245 46.478C282.162 47.2067 283.332 47.571 284.753 47.571ZM296.298 32.2415L296.298 29.2727L313.138 29.2727L313.138 32.2415L306.337 32.2415L306.337 50L303.153 50L303.153 32.2415L296.298 32.2415ZM317.784 50L317.784 29.2727L320.969 29.2727L320.969 38.287L323.074 38.287L330.523 29.2727L334.625 29.2727L326.258 39.2585L334.733 50L330.631 50L323.829 41.2557L320.969 41.2557L320.969 50L317.784 50ZM346.031 50.4318C344.034 50.4318 342.311 49.991 340.863 49.1094C339.423 48.2188 338.312 46.9773 337.529 45.385C336.756 43.7836 336.369 41.9214 336.369 39.7983C336.369 37.6752 336.756 35.804 337.529 34.1847C338.312 32.5564 339.401 31.2879 340.795 30.3793C342.199 29.4617 343.836 29.0029 345.707 29.0029C346.787 29.0029 347.853 29.1828 348.905 29.5426C349.958 29.9025 350.916 30.4872 351.779 31.2969C352.643 32.0976 353.331 33.1591 353.844 34.4816C354.357 35.804 354.613 37.4323 354.613 39.3665L354.613 40.7159L338.636 40.7159L338.636 37.9631L351.375 37.9631C351.375 36.7936 351.141 35.75 350.673 34.8324C350.214 33.9148 349.557 33.1906 348.703 32.6598C347.857 32.129 346.859 31.8637 345.707 31.8637C344.439 31.8637 343.341 32.1785 342.414 32.8083C341.497 33.429 340.791 34.2387 340.296 35.2372C339.801 36.2358 339.554 37.3064 339.554 38.4489L339.554 40.2841C339.554 41.8495 339.824 43.1764 340.363 44.2649C340.912 45.3445 341.672 46.1676 342.644 46.7344C343.615 47.2922 344.744 47.571 346.031 47.571C346.868 47.571 347.623 47.4541 348.298 47.2202C348.982 46.9773 349.571 46.6174 350.066 46.1406C350.56 45.6549 350.943 45.0521 351.213 44.3324L354.289 45.196C353.966 46.2396 353.421 47.1572 352.657 47.9489C351.892 48.7316 350.947 49.3433 349.823 49.7841C348.698 50.2159 347.434 50.4318 346.031 50.4318Z" fill="#D96666"/>
</g>
<g filter="url(#filter2_d_130_25)">
<path d="M452.133 40.3708C455.562 38.4658 455.562 33.5342 452.133 31.6292L420.581 14.1006C412.471 9.59517 403.13 17.603 406.344 26.3059L407.365 29.0725C409.016 33.5433 409.016 38.4567 407.365 42.9275L406.344 45.694C403.13 54.397 412.471 62.4048 420.581 57.8994L452.133 40.3708Z" fill="#F6F6F6"/>
</g>
<g filter="url(#filter3_d_130_25)">
<path d="M7.86742 31.6292C4.43838 33.5342 4.43837 38.4658 7.86742 40.3708L39.4189 57.8994C47.5287 62.4048 56.8697 54.397 53.6563 45.6941L52.6348 42.9275C50.984 38.4567 50.984 33.5433 52.6348 29.0725L53.6563 26.306C56.8697 17.603 47.5287 9.59517 39.4189 14.1006L7.86742 31.6292Z" fill="#F6F6F6"/>
</g>
<defs>
<filter id="filter0_d_130_25" x="80" y="0" width="300" height="78" filterUnits="userSpaceOnUse" color-interpolation-filters="sRGB">
<feFlood flood-opacity="0" result="BackgroundImageFix"/>
<feColorMatrix in="SourceAlpha" type="matrix" values="0 0 0 0 0 0 0 0 0 0 0 0 0 0 0 0 0 0 127 0" result="hardAlpha"/>
<feOffset dy="8"/>
<feComposite in2="hardAlpha" operator="out"/>
<feColorMatrix type="matrix" values="0 0 0 0 0.85098 0 0 0 0 0.4 0 0 0 0 0.4 0 0 0 1 0"/>
<feBlend mode="normal" in2="BackgroundImageFix" result="effect1_dropShadow_130_25"/>
<feBlend mode="normal" in="SourceGraphic" in2="effect1_dropShadow_130_25" result="shape"/>
</filter>
<filter id="filter1_d_130_25" x="90.7241" y="6.5" width="288.889" height="76.2728" filterUnits="userSpaceOnUse" color-interpolation-filters="sRGB">
<feFlood flood-opacity="0" result="BackgroundImageFix"/>
<feColorMatrix in="SourceAlpha" type="matrix" values="0 0 0 0 0 0 0 0 0 0 0 0 0 0 0 0 0 0 127 0" result="hardAlpha"/>
<feOffset dx="5" dy="5"/>
<feGaussianBlur stdDeviation="10"/>
<feComposite in2="hardAlpha" operator="out"/>
<feColorMatrix type="matrix" values="0 0 0 0 0.451396 0 0 0 0 0.0367188 0 0 0 0 0.979167 0 0 0 0.25 0"/>
<feBlend mode="normal" in2="BackgroundImageFix" result="effect1_dropShadow_130_25"/>
<feBlend mode="normal" in="SourceGraphic" in2="effect1_dropShadow_130_25" result="shape"/>
</filter>
<filter id="filter2_d_130_25" x="397.694" y="12.8043" width="57.01" height="54.3913" filterUnits="userSpaceOnUse" color-interpolation-filters="sRGB">
<feFlood flood-opacity="0" result="BackgroundImageFix"/>
<feColorMatrix in="SourceAlpha" type="matrix" values="0 0 0 0 0 0 0 0 0 0 0 0 0 0 0 0 0 0 127 0" result="hardAlpha"/>
<feOffset dx="-8" dy="8"/>
<feComposite in2="hardAlpha" operator="out"/>
<feColorMatrix type="matrix" values="0 0 0 0 0.85098 0 0 0 0 0.4 0 0 0 0 0.4 0 0 0 1 0"/>
<feBlend mode="normal" in2="BackgroundImageFix" result="effect1_dropShadow_130_25"/>
<feBlend mode="normal" in="SourceGraphic" in2="effect1_dropShadow_130_25" result="shape"/>
</filter>
<filter id="filter3_d_130_25" x="5.29565" y="12.8043" width="57.01" height="54.3913" filterUnits="userSpaceOnUse" color-interpolation-filters="sRGB">
<feFlood flood-opacity="0" result="BackgroundImageFix"/>
<feColorMatrix in="SourceAlpha" type="matrix" values="0 0 0 0 0 0 0 0 0 0 0 0 0 0 0 0 0 0 127 0" result="hardAlpha"/>
<feOffset dx="8" dy="8"/>
<feComposite in2="hardAlpha" operator="out"/>
<feColorMatrix type="matrix" values="0 0 0 0 0.85098 0 0 0 0 0.4 0 0 0 0 0.4 0 0 0 1 0"/>
<feBlend mode="normal" in2="BackgroundImageFix" result="effect1_dropShadow_130_25"/>
<feBlend mode="normal" in="SourceGraphic" in2="effect1_dropShadow_130_25" result="shape"/>
</filter>
</defs>
</svg>
