<svg width="85" height="85" viewBox="0 0 85 85" fill="none" xmlns="http://www.w3.org/2000/svg">
<g filter="url(#filter0_d_141_21)">
<circle cx="42.5" cy="37.5" r="37.5" fill="white"/>
</g>
<path d="M56.3978 58C59.1287 55.311 61.2946 52.1157 62.7708 48.5976C64.247 45.0795 65.0045 41.3081 64.9998 37.5C65.0045 33.6919 64.247 29.9205 62.7708 26.4024C61.2946 22.8843 59.1287 19.689 56.3978 17L53.9519 19.4116C56.3616 21.7842 58.2726 24.6037 59.5751 27.7079C60.8776 30.8121 61.546 34.1399 61.5417 37.5C61.5417 44.5641 58.6398 50.9597 53.9519 55.5884L56.3978 58Z" fill="black"/>
<path d="M51.5098 53.177C53.5981 51.1206 55.2542 48.677 56.383 45.9866C57.5118 43.2963 58.091 40.4122 58.0874 37.5001C58.091 34.588 57.5118 31.704 56.383 29.0136C55.2542 26.3233 53.5981 23.8797 51.5098 21.8232L49.0674 24.2348C50.8344 25.9749 52.2357 28.0426 53.1908 30.3191C54.1459 32.5956 54.6359 35.036 54.6328 37.5001C54.6368 39.9645 54.1475 42.4055 53.193 44.6826C52.2385 46.9597 50.8376 49.0281 49.0708 50.7688L51.5098 53.177Z" fill="black"/>
<path d="M51.178 37.5001C51.1807 39.5162 50.7798 41.5129 49.9984 43.3756C49.217 45.2382 48.0705 46.93 46.6248 48.3538L44.1824 45.9422C45.3069 44.8348 46.1985 43.5189 46.8062 42.0701C47.4139 40.6213 47.7256 39.0682 47.7234 37.5001C47.7234 34.2051 46.3692 31.2204 44.1824 29.0579L46.6248 26.6463C48.0705 28.0701 49.217 29.7619 49.9984 31.6246C50.7798 33.4872 51.1807 35.484 51.178 37.5001ZM40.7278 23.8561C40.7273 23.5352 40.6352 23.2209 40.4619 22.9494C40.2886 22.6779 40.0413 22.4601 39.7483 22.3212C39.4553 22.1823 39.1286 22.1278 38.8056 22.164C38.4827 22.2002 38.1766 22.3256 37.9226 22.5259L29.7593 28.9726H21.7273C21.2692 28.9726 20.8299 29.1523 20.5059 29.4721C20.182 29.792 20 30.2258 20 30.6781V44.322C20 44.7744 20.182 45.2082 20.5059 45.528C20.8299 45.8478 21.2692 46.0275 21.7273 46.0275H29.7593L37.9226 52.4743C38.1766 52.6745 38.4827 52.8 38.8056 52.8362C39.1286 52.8724 39.4553 52.8179 39.7483 52.6789C40.0413 52.54 40.2886 52.3222 40.4619 52.0507C40.6352 51.7792 40.7273 51.4649 40.7278 51.144V23.8561ZM31.4417 32.0084L37.2732 27.4036V47.5966L31.4417 42.9917C31.136 42.7495 30.7559 42.6172 30.3639 42.6165H23.4546V32.3836H30.3639C30.7559 32.3829 31.136 32.2506 31.4417 32.0084Z" fill="black"/>
<defs>
<filter id="filter0_d_141_21" x="0" y="0" width="85" height="85" filterUnits="userSpaceOnUse" color-interpolation-filters="sRGB">
<feFlood flood-opacity="0" result="BackgroundImageFix"/>
<feColorMatrix in="SourceAlpha" type="matrix" values="0 0 0 0 0 0 0 0 0 0 0 0 0 0 0 0 0 0 127 0" result="hardAlpha"/>
<feOffset dy="5"/>
<feGaussianBlur stdDeviation="2.5"/>
<feComposite in2="hardAlpha" operator="out"/>
<feColorMatrix type="matrix" values="0 0 0 0 0 0 0 0 0 0 0 0 0 0 0 0 0 0 0.2 0"/>
<feBlend mode="normal" in2="BackgroundImageFix" result="effect1_dropShadow_141_21"/>
<feBlend mode="normal" in="SourceGraphic" in2="effect1_dropShadow_141_21" result="shape"/>
</filter>
</defs>
</svg>
