<svg width="85" height="85" viewBox="0 0 85 85" fill="none" xmlns="http://www.w3.org/2000/svg">
<g filter="url(#filter0_d_141_41)">
<circle cx="42.5" cy="37.5" r="37.5" fill="white"/>
</g>
<g clip-path="url(#clip0_141_41)">
<path d="M27.5 22.5C26.1739 22.5 24.9021 23.0268 23.9645 23.9645C23.0268 24.9021 22.5 26.1739 22.5 27.5V47.525C22.5066 48.8467 23.0363 50.1121 23.9733 51.0444C24.9102 51.9767 26.1782 52.5 27.5 52.5H41.25C41.5815 52.5 41.8995 52.3683 42.1339 52.1339C42.3683 51.8995 42.5 51.5815 42.5 51.25C42.5 50.9185 42.3683 50.6005 42.1339 50.3661C41.8995 50.1317 41.5815 50 41.25 50H27.5C26.9497 50.0001 26.4147 49.8186 25.9781 49.4836C25.5415 49.1487 25.2275 48.679 25.085 48.1475L39.185 39.47L42.5 41.4575L60 30.9575V38.75C60 39.0815 60.1317 39.3995 60.3661 39.6339C60.6005 39.8683 60.9185 40 61.25 40C61.5815 40 61.8995 39.8683 62.1339 39.6339C62.3683 39.3995 62.5 39.0815 62.5 38.75V27.5C62.5 26.1739 61.9732 24.9021 61.0355 23.9645C60.0979 23.0268 58.8261 22.5 57.5 22.5H27.5ZM36.77 38.02L25 45.2625V30.9575L36.77 38.02ZM25 28.0425V27.5C25 26.837 25.2634 26.2011 25.7322 25.7322C26.2011 25.2634 26.837 25 27.5 25H57.5C58.163 25 58.7989 25.2634 59.2678 25.7322C59.7366 26.2011 60 26.837 60 27.5V28.0425L42.5 38.5425L25 28.0425Z" fill="black"/>
<path d="M62.5 48.75C62.5 51.0706 61.5781 53.2962 59.9372 54.9372C58.2962 56.5781 56.0706 57.5 53.75 57.5C51.4294 57.5 49.2038 56.5781 47.5628 54.9372C45.9219 53.2962 45 51.0706 45 48.75C45 46.4294 45.9219 44.2038 47.5628 42.5628C49.2038 40.9219 51.4294 40 53.75 40C56.0706 40 58.2962 40.9219 59.9372 42.5628C61.5781 44.2038 62.5 46.4294 62.5 48.75ZM53.75 43.75C53.4185 43.75 53.1005 43.8817 52.8661 44.1161C52.6317 44.3505 52.5 44.6685 52.5 45V47.5H50C49.6685 47.5 49.3505 47.6317 49.1161 47.8661C48.8817 48.1005 48.75 48.4185 48.75 48.75C48.75 49.0815 48.8817 49.3995 49.1161 49.6339C49.3505 49.8683 49.6685 50 50 50H52.5V52.5C52.5 52.8315 52.6317 53.1495 52.8661 53.3839C53.1005 53.6183 53.4185 53.75 53.75 53.75C54.0815 53.75 54.3995 53.6183 54.6339 53.3839C54.8683 53.1495 55 52.8315 55 52.5V50H57.5C57.8315 50 58.1495 49.8683 58.3839 49.6339C58.6183 49.3995 58.75 49.0815 58.75 48.75C58.75 48.4185 58.6183 48.1005 58.3839 47.8661C58.1495 47.6317 57.8315 47.5 57.5 47.5H55V45C55 44.6685 54.8683 44.3505 54.6339 44.1161C54.3995 43.8817 54.0815 43.75 53.75 43.75Z" fill="black"/>
</g>
<defs>
<filter id="filter0_d_141_41" x="0" y="0" width="85" height="85" filterUnits="userSpaceOnUse" color-interpolation-filters="sRGB">
<feFlood flood-opacity="0" result="BackgroundImageFix"/>
<feColorMatrix in="SourceAlpha" type="matrix" values="0 0 0 0 0 0 0 0 0 0 0 0 0 0 0 0 0 0 127 0" result="hardAlpha"/>
<feOffset dy="5"/>
<feGaussianBlur stdDeviation="2.5"/>
<feComposite in2="hardAlpha" operator="out"/>
<feColorMatrix type="matrix" values="0 0 0 0 0 0 0 0 0 0 0 0 0 0 0 0 0 0 0.2 0"/>
<feBlend mode="normal" in2="BackgroundImageFix" result="effect1_dropShadow_141_41"/>
<feBlend mode="normal" in="SourceGraphic" in2="effect1_dropShadow_141_41" result="shape"/>
</filter>
<clipPath id="clip0_141_41">
<rect width="40" height="40" fill="white" transform="translate(22.5 17.5)"/>
</clipPath>
</defs>
</svg>
