<svg width="300" height="82" viewBox="0 0 300 82" fill="none" xmlns="http://www.w3.org/2000/svg">
<g filter="url(#filter0_d_127_7)">
<rect width="300" height="70" rx="35" fill="#F7F7F7"/>
</g>
<g filter="url(#filter1_d_127_7)">
<path d="M41.9518 48V17.4545H45.6507V31.0568H61.9376V17.4545H65.6365V48H61.9376V34.3381H45.6507V48H41.9518ZM79.3058 48.5369C77.8541 48.5369 76.5367 48.2635 75.3534 47.7166C74.1702 47.1598 73.2306 46.3594 72.5345 45.3153C71.8385 44.2614 71.4905 42.9886 71.4905 41.4972C71.4905 40.1847 71.749 39.1207 72.2661 38.3054C72.7831 37.4801 73.4742 36.8338 74.3392 36.3665C75.2043 35.8991 76.1588 35.5511 77.2029 35.3224C78.2568 35.0838 79.3158 34.8949 80.3797 34.7557C81.7718 34.5767 82.9003 34.4425 83.7654 34.353C84.6404 34.2536 85.2767 34.0895 85.6744 33.8608C86.0821 33.6321 86.286 33.2344 86.286 32.6676V32.5483C86.286 31.0767 85.8833 29.9332 85.0779 29.1179C84.2824 28.3026 83.0743 27.8949 81.4536 27.8949C79.7732 27.8949 78.4557 28.2628 77.5012 28.9986C76.5466 29.7344 75.8754 30.5199 75.4877 31.3551L72.1468 30.1619C72.7433 28.7699 73.5388 27.6861 74.5331 26.9105C75.5374 26.125 76.6311 25.5781 77.8144 25.2699C79.0075 24.9517 80.1808 24.7926 81.3343 24.7926C82.07 24.7926 82.9152 24.8821 83.8698 25.0611C84.8343 25.2301 85.7639 25.5831 86.6588 26.12C87.5637 26.657 88.3144 27.4673 88.911 28.5511C89.5075 29.6349 89.8058 31.0866 89.8058 32.9062V48H86.286V44.8977H86.107C85.8683 45.3949 85.4706 45.9268 84.9138 46.4936C84.357 47.0604 83.6162 47.5426 82.6915 47.9403C81.7668 48.3381 80.6382 48.5369 79.3058 48.5369ZM79.8428 45.375C81.2348 45.375 82.4081 45.1016 83.3627 44.5547C84.3271 44.0078 85.053 43.3018 85.5402 42.4368C86.0374 41.5717 86.286 40.6619 86.286 39.7074V36.4858C86.1368 36.6648 85.8087 36.8288 85.3016 36.978C84.8044 37.1172 84.2277 37.2415 83.5715 37.3509C82.9252 37.4503 82.2938 37.5398 81.6773 37.6193C81.0708 37.6889 80.5786 37.7486 80.2007 37.7983C79.286 37.9176 78.4308 38.1115 77.6354 38.38C76.8499 38.6385 76.2135 39.0312 75.7263 39.5582C75.249 40.0753 75.0104 40.7812 75.0104 41.6761C75.0104 42.8991 75.4628 43.8239 76.3676 44.4503C77.2824 45.0668 78.4408 45.375 79.8428 45.375ZM105.537 48.4773C103.389 48.4773 101.54 47.9702 99.9889 46.956C98.4378 45.9418 97.2446 44.5447 96.4094 42.7649C95.5741 40.9851 95.1565 38.9517 95.1565 36.6648C95.1565 34.3381 95.5841 32.2848 96.4392 30.505C97.3042 28.7152 98.5074 27.3182 100.049 26.3139C101.6 25.2997 103.409 24.7926 105.478 24.7926C107.088 24.7926 108.54 25.0909 109.833 25.6875C111.125 26.2841 112.184 27.1193 113.01 28.1932C113.835 29.267 114.347 30.5199 114.546 31.9517H111.026C110.757 30.9077 110.161 29.983 109.236 29.1776C108.321 28.3622 107.088 27.9545 105.537 27.9545C104.165 27.9545 102.962 28.3125 101.928 29.0284C100.904 29.7344 100.103 30.7337 99.5265 32.0263C98.9598 33.3089 98.6764 34.8153 98.6764 36.5455C98.6764 38.3153 98.9548 39.8565 99.5116 41.169C100.078 42.4815 100.874 43.5007 101.898 44.2266C102.932 44.9524 104.145 45.3153 105.537 45.3153C106.452 45.3153 107.282 45.1562 108.028 44.8381C108.774 44.5199 109.405 44.0625 109.922 43.4659C110.439 42.8693 110.807 42.1534 111.026 41.3182H114.546C114.347 42.6705 113.855 43.8885 113.069 44.9723C112.294 46.0462 111.264 46.9013 109.982 47.5376C108.709 48.1641 107.228 48.4773 105.537 48.4773ZM117.887 28.3722V25.0909H136.5V28.3722H128.983V48H125.463V28.3722H117.887ZM141.635 56.5909V25.0909H145.035V28.7301H145.453C145.711 28.3324 146.069 27.8253 146.527 27.2088C146.994 26.5824 147.66 26.0256 148.525 25.5384C149.4 25.0412 150.584 24.7926 152.075 24.7926C154.004 24.7926 155.704 25.2749 157.176 26.2393C158.647 27.2038 159.796 28.571 160.621 30.3409C161.446 32.1108 161.859 34.1989 161.859 36.6051C161.859 39.0312 161.446 41.1342 160.621 42.9141C159.796 44.6839 158.652 46.0561 157.191 47.0305C155.729 47.995 154.044 48.4773 152.135 48.4773C150.663 48.4773 149.485 48.2337 148.6 47.7464C147.715 47.2493 147.034 46.6875 146.557 46.0611C146.079 45.4247 145.711 44.8977 145.453 44.4801H145.155V56.5909H141.635ZM145.095 36.5455C145.095 38.2756 145.348 39.8018 145.856 41.1243C146.363 42.4368 147.103 43.4659 148.078 44.2116C149.052 44.9474 150.245 45.3153 151.657 45.3153C153.129 45.3153 154.357 44.9276 155.341 44.152C156.336 43.3665 157.081 42.3125 157.579 40.9901C158.086 39.6577 158.339 38.1761 158.339 36.5455C158.339 34.9347 158.091 33.483 157.593 32.1903C157.106 30.8878 156.366 29.8587 155.371 29.103C154.387 28.3374 153.149 27.9545 151.657 27.9545C150.226 27.9545 149.022 28.3175 148.048 29.0433C147.074 29.7592 146.338 30.7635 145.841 32.0561C145.343 33.3388 145.095 34.8352 145.095 36.5455ZM176.535 48.4773C174.467 48.4773 172.652 47.9851 171.091 47.0007C169.54 46.0163 168.327 44.6392 167.452 42.8693C166.587 41.0994 166.155 39.0312 166.155 36.6648C166.155 34.2784 166.587 32.1953 167.452 30.4155C168.327 28.6357 169.54 27.2536 171.091 26.2692C172.652 25.2848 174.467 24.7926 176.535 24.7926C178.603 24.7926 180.413 25.2848 181.964 26.2692C183.525 27.2536 184.738 28.6357 185.603 30.4155C186.478 32.1953 186.916 34.2784 186.916 36.6648C186.916 39.0312 186.478 41.0994 185.603 42.8693C184.738 44.6392 183.525 46.0163 181.964 47.0007C180.413 47.9851 178.603 48.4773 176.535 48.4773ZM176.535 45.3153C178.106 45.3153 179.399 44.9126 180.413 44.1072C181.427 43.3018 182.178 42.2429 182.665 40.9304C183.152 39.6179 183.396 38.196 183.396 36.6648C183.396 35.1335 183.152 33.7067 182.665 32.3842C182.178 31.0618 181.427 29.9929 180.413 29.1776C179.399 28.3622 178.106 27.9545 176.535 27.9545C174.964 27.9545 173.672 28.3622 172.657 29.1776C171.643 29.9929 170.892 31.0618 170.405 32.3842C169.918 33.7067 169.674 35.1335 169.674 36.6648C169.674 38.196 169.918 39.6179 170.405 40.9304C170.892 42.2429 171.643 43.3018 172.657 44.1072C173.672 44.9126 174.964 45.3153 176.535 45.3153ZM195.809 42.8097L206.846 25.0909H210.903V48H207.383V30.2812L196.405 48H192.289V25.0909H195.809V42.8097ZM204.519 17.4545H207.8C207.8 19.0653 207.244 20.3828 206.13 21.407C205.016 22.4311 203.505 22.9432 201.596 22.9432C199.717 22.9432 198.22 22.4311 197.106 21.407C196.003 20.3828 195.451 19.0653 195.451 17.4545H198.732C198.732 18.2301 198.946 18.9112 199.373 19.4979C199.811 20.0845 200.552 20.3778 201.596 20.3778C202.64 20.3778 203.386 20.0845 203.833 19.4979C204.29 18.9112 204.519 18.2301 204.519 17.4545ZM217.35 48V25.0909H220.869V35.054H223.196L231.429 25.0909H235.963L226.716 36.1278L236.082 48H231.548L224.031 38.3352H220.869V48H217.35ZM243.428 42.8097L254.465 25.0909H258.522V48H255.002V30.2812L244.025 48H239.908V25.0909H243.428V42.8097Z" fill="#D96666"/>
</g>
<defs>
<filter id="filter0_d_127_7" x="0" y="0" width="300" height="78" filterUnits="userSpaceOnUse" color-interpolation-filters="sRGB">
<feFlood flood-opacity="0" result="BackgroundImageFix"/>
<feColorMatrix in="SourceAlpha" type="matrix" values="0 0 0 0 0 0 0 0 0 0 0 0 0 0 0 0 0 0 127 0" result="hardAlpha"/>
<feOffset dy="8"/>
<feComposite in2="hardAlpha" operator="out"/>
<feColorMatrix type="matrix" values="0 0 0 0 0.85098 0 0 0 0 0.4 0 0 0 0 0.4 0 0 0 1 0"/>
<feBlend mode="normal" in2="BackgroundImageFix" result="effect1_dropShadow_127_7"/>
<feBlend mode="normal" in="SourceGraphic" in2="effect1_dropShadow_127_7" result="shape"/>
</filter>
<filter id="filter1_d_127_7" x="26.9519" y="2.45453" width="256.57" height="79.1364" filterUnits="userSpaceOnUse" color-interpolation-filters="sRGB">
<feFlood flood-opacity="0" result="BackgroundImageFix"/>
<feColorMatrix in="SourceAlpha" type="matrix" values="0 0 0 0 0 0 0 0 0 0 0 0 0 0 0 0 0 0 127 0" result="hardAlpha"/>
<feOffset dx="5" dy="5"/>
<feGaussianBlur stdDeviation="10"/>
<feComposite in2="hardAlpha" operator="out"/>
<feColorMatrix type="matrix" values="0 0 0 0 0.451396 0 0 0 0 0.0367188 0 0 0 0 0.979167 0 0 0 0.25 0"/>
<feBlend mode="normal" in2="BackgroundImageFix" result="effect1_dropShadow_127_7"/>
<feBlend mode="normal" in="SourceGraphic" in2="effect1_dropShadow_127_7" result="shape"/>
</filter>
</defs>
</svg>
